# xmcd
#
# Track frame offsets: 
#        182
#        80835
#        157255
#        244875
#
# Disc length: 3632 seconds
#
# Revision: 2
# Processed by: cddbd v1.5.2PL0 Copyright (c) Steve Scherf et al.
# Submitted via: ExactAudioCopy v0.95a5
#
DISCID=320e2e04
DTITLE=Kyung Wha Chung - Violin Concertos
DYEAR=1983
DGENRE=Chamber Music
TTITLE0=Tchaikovsky Concerto in D major, Op.35, I.Allegro Moderato
TTITLE1=Tchaikovsky Concerto in D major, Op.35, II. Canzonetta and III.F
TTITLE1=inale
TTITLE2=Mendelssohn Concerto in e Minor, Op.64, I.Allegro Molto Appass
TTITLE2=ionato and II.Andante
TTITLE3=Mendelssohn Concerto in e Minor, Op.64, III.Allegretto Non Tro
TTITLE3=ppo
EXTD=
EXTT0=
EXTT1=
EXTT2=
EXTT3=
PLAYORDER=
